<svg width="300" height="300" viewBox="0 0 300 300" fill="none" xmlns="http://www.w3.org/2000/svg">
<g clip-path="url(#clip0_3_414)">
<rect width="300" height="300" rx="101" fill="#D9D9D9"/>
<path d="M106.949 128.633L128.291 107.291C140.077 95.5039 159.188 95.5039 170.974 107.291L192.316 128.633L149.633 171.316L106.949 128.633Z" fill="#1F1F1F"/>
<path d="M106.949 128.633L128.291 107.291C140.077 95.5039 159.188 95.5039 170.974 107.291L213.658 149.974C225.445 161.761 225.445 180.871 213.658 192.658V192.658C201.871 204.445 182.761 204.445 170.974 192.658L106.949 128.633Z" stroke="#1F1F1F" stroke-width="25.8968"/>
<path d="M128.291 107.291C140.078 95.5043 159.188 95.5043 170.975 107.291L192.316 128.633L128.291 192.659C116.504 204.445 97.3938 204.445 85.6071 192.659V192.659C73.8203 180.872 73.8203 161.762 85.607 149.975L128.291 107.291Z" stroke="#1F1F1F" stroke-width="25.8968"/>
</g>
<defs>
<clipPath id="clip0_3_414">
<rect width="300" height="300" fill="white"/>
</clipPath>
</defs>
</svg>
